<svg xmlns="http://www.w3.org/2000/svg" width="1240" height="1240">
  <path
    d="M309.87 50.539c-43.279 6.743-79.636 33.161-99.147 72.042-8.698 17.334-12.58 32.973-13.407 54.01-.943 24.021 2.597 42.068 12.194 62.162 16.117 33.745 43.455 57.933 78.846 69.764C302.313 313.183 313.844 315 329.5 315c21.8 0 39.772-4.222 59.781-14.044 13.305-6.532 23.872-14.374 35.532-26.37 15.206-15.644 24.044-30.018 30.699-49.926 4.888-14.622 6.615-25.739 6.625-42.66.022-36.01-12.062-66.243-36.76-91.975-11.278-11.75-23.183-20.42-37.877-27.586-23.763-11.589-51.925-15.906-77.63-11.9m211.279 25.157c-1.843.908-4.543 3.453-6 5.655l-2.649 4.003v109.073c0 122.781-.65 112.798 7.705 118.327l4.149 2.746H741.5l3.7-2.3c2.034-1.266 4.734-3.966 6-6l2.3-3.7v-218l-2.351-3.781c-1.293-2.08-4.087-4.667-6.21-5.75-3.77-1.923-6.379-1.968-112.149-1.946-98.609.021-108.59.17-111.641 1.673M812.5 76.881c-2.2 1.01-4.83 2.77-5.845 3.912-4.638 5.216-4.566 3.388-4.589 115.707-.021 100.97.066 106.19 1.824 110 2.136 4.628 5.422 7.917 9.425 9.433 1.931.732 36.667 1.067 110.55 1.067H1031.6l4.064-2.636c2.236-1.449 4.913-4.037 5.95-5.75 1.812-2.991 1.898-7.337 2.185-110.114.203-72.55-.038-108.164-.749-110.615-1.471-5.07-4.708-8.825-9.471-10.989-3.889-1.766-9.042-1.852-110.579-1.852-101.228 0-106.698.091-110.5 1.837m-581 290.536c-3.727 1.664-8.031 6.179-9.436 9.898-.728 1.925-1.064 36.637-1.064 109.782 0 88.605.236 107.52 1.377 110.185 1.665 3.892 6.107 8.207 9.938 9.654 1.925.728 36.639 1.064 109.79 1.064 102.998 0 107.113-.07 110.685-1.894 4.735-2.416 7.057-5.01 8.761-9.79 2.016-5.653 2.016-212.979 0-218.632-1.777-4.983-4.149-7.552-9.051-9.803-3.803-1.747-9.267-1.836-111-1.82-87.207.014-107.555.265-110 1.356m289.466.833c-2.937 1.483-5.221 3.614-6.695 6.25l-2.238 4v217l2.238 4c1.474 2.636 3.758 4.767 6.695 6.25l4.458 2.25h214.152l4.458-2.25c2.937-1.483 5.221-3.614 6.695-6.25l2.238-4 .017-108.412.016-108.412-2.486-4.242c-1.657-2.828-3.929-4.94-6.816-6.338-4.313-2.088-4.739-2.096-111.302-2.096H525.424l-4.458 2.25M231.5 658.417c-3.727 1.664-8.031 6.179-9.436 9.898-1.486 3.931-1.488 215.431-.003 219.37 1.579 4.187 6.874 9.202 10.895 10.319 2.223.618 43.077.987 109.582.99l106.038.006 4.404-2.25c5.186-2.65 7.811-5.931 9.063-11.327 1.31-5.65 1.227-210.909-.087-215.642-1.324-4.767-5.465-9.678-9.627-11.417-4.791-2.002-216.339-1.951-220.829.053m289.68.265c-1.827.9-4.527 3.217-6 5.149l-2.68 3.513-.241 109.578-.241 109.578 2.241 3.925c1.4 2.451 3.908 4.804 6.681 6.267l4.44 2.343 108.06-.268 108.06-.267 3.538-2.201c1.946-1.21 4.534-3.971 5.75-6.136l2.212-3.935-.016-108.364-.017-108.364-2.254-3.98c-1.264-2.231-4.002-4.969-6.233-6.233l-3.98-2.254-108 .006c-97.968.006-108.308.159-111.32 1.643m291.32-.27c-3.864 1.717-7.007 5.165-8.952 9.82-1.365 3.265-1.545 16.285-1.526 109.986.021 100.99.113 106.481 1.859 110.282 2.185 4.758 4.415 6.89 9.373 8.962 3.236 1.352 16.548 1.535 109.964 1.516 100.99-.021 106.481-.113 110.282-1.859 4.758-2.185 6.89-4.415 8.962-9.373 1.351-3.235 1.537-16.523 1.532-109.464-.003-66.337-.372-107.104-.99-109.326-1.117-4.021-6.132-9.316-10.319-10.895-1.924-.725-36.757-1.049-110-1.022-87.09.032-107.747.289-110.185 1.373M229.337 950.514a16.212 16.212 0 00-6.268 6.843l-2.104 4.347.268 108.476.267 108.476 2.802 3.673c5.916 7.757-3.7 7.171 117.698 7.171h108.5l3.7-2.3c2.034-1.266 4.734-3.966 6-6l2.3-3.7V1070c0-59.125-.337-108.703-.75-110.173-1.073-3.827-5.617-8.874-9.421-10.463-2.689-1.124-22.262-1.362-111.047-1.355l-107.782.01-4.163 2.495m291.843-.832c-1.827.9-4.527 3.217-6 5.149l-2.68 3.513-.279 108.578c-.153 59.718-.029 109.602.275 110.853.906 3.719 7.367 10.093 11.352 11.2 5.4 1.499 212.743 1.396 217.253-.109 4.053-1.352 9.342-6.105 10.847-9.747.76-1.838 1.003-35.141.817-111.619l-.265-109-2.334-3.273c-1.284-1.8-4.079-4.162-6.21-5.25-3.791-1.934-6.238-1.977-111.666-1.954-97.753.02-108.099.175-111.11 1.659"
    fill="undefined" fill-rule="evenodd"/>
</svg>
